<svg xmlns="http://www.w3.org/2000/svg" width="24" height="24" viewBox="0 0 24 24">
  <g fill="none" fill-rule="evenodd" transform="translate(-497 -345)">
    <rect width="731" height="608" x="425" y="100" fill="#FFF" rx="4"/>
    <g transform="translate(497 345)">
      <path fill="#000" fill-rule="nonzero" d="M18,3 L18,5 L16,5 L16,3 L8,3 L8,5 L6,5 L6,3 L4,3 L4,21 L6,21 L6,19 L8,19 L8,21 L16,21 L16,19 L18,19 L18,21 L20,21 L20,3 L18,3 Z M8,17 L6,17 L6,15 L8,15 L8,17 Z M8,13 L6,13 L6,11 L8,11 L8,13 Z M8,9 L6,9 L6,7 L8,7 L8,9 Z M18,17 L16,17 L16,15 L18,15 L18,17 Z M18,13 L16,13 L16,11 L18,11 L18,13 Z M18,9 L16,9 L16,7 L18,7 L18,9 Z"/>
      <polygon points="0 0 24 0 24 24 0 24"/>
    </g>
  </g>
</svg>
